<svg width="31" height="30" viewBox="0 0 31 30" fill="none" xmlns="http://www.w3.org/2000/svg">
<path d="M17.8196 27.9906L16.2836 29.5157C15.6332 30.1614 14.5815 30.1614 13.9381 29.5157L0.48778 16.1679C-0.162593 15.5221 -0.162593 14.4779 0.48778 13.839L13.9381 0.484314C14.5884 -0.161438 15.6401 -0.161438 16.2836 0.484314L17.8196 2.00939C18.4768 2.66201 18.463 3.72681 17.7919 4.3657L9.45464 12.2521H29.3395C30.2597 12.2521 31 12.9872 31 13.9008V16.0992C31 17.0128 30.2597 17.7479 29.3395 17.7479H9.45464L17.7919 25.6343C18.4699 26.2732 18.4838 27.338 17.8196 27.9906Z" fill="white"/>
</svg>
