<svg width="26" height="26" viewBox="0 0 26 26" fill="none" xmlns="http://www.w3.org/2000/svg">
<path d="M17.3263 21.4349L13.4593 25.3019C13.0017 25.7596 12.2597 25.7596 11.8021 25.3019L7.93506 21.4349C7.19683 20.6967 7.71968 19.4344 8.76372 19.4344H11.2619L11.2618 14.5123H6.33975V17.0104C6.33975 18.0545 5.07749 18.5773 4.33921 17.8391L0.472217 13.9721C0.0145508 13.5145 0.0145508 12.7725 0.472217 12.3148L4.33921 8.44785C5.07744 7.70962 6.33975 8.23247 6.33975 9.27651V11.7779H11.2618V6.85586H8.76035C7.71631 6.85586 7.19346 5.5936 7.93169 4.85532L11.7987 0.98833C12.2563 0.530664 12.9983 0.530664 13.456 0.98833L17.3229 4.85532C18.0612 5.59355 17.5383 6.85586 16.4943 6.85586H13.9961V11.7779H18.9182V9.27979C18.9182 8.23574 20.1805 7.71289 20.9187 8.45112L24.7857 12.3181C25.2434 12.7758 25.2434 13.5178 24.7857 13.9754L20.9187 17.8424C20.1805 18.5806 18.9182 18.0578 18.9182 17.0137V14.5123H13.9962V19.4344H16.4977C17.5417 19.4344 18.0646 20.6966 17.3263 21.4349Z" fill="#fff"/>
</svg>
