<svg width="27" height="19" viewBox="0 0 27 19" fill="none" xmlns="http://www.w3.org/2000/svg">
<path d="M26.8369 8.68127C24.2949 3.58224 19.2624 0.132294 13.5 0.132294C7.73765 0.132294 2.70373 3.58465 0.1631 8.68175C0.0558691 8.89982 0 9.14075 0 9.38509C0 9.62944 0.0558691 9.87037 0.1631 10.0884C2.70514 15.1875 7.73765 18.6374 13.5 18.6374C19.2624 18.6374 24.2963 15.185 26.8369 10.0879C26.9441 9.86988 27 9.62896 27 9.38461C27 9.14026 26.9441 8.89934 26.8369 8.68127ZM13.5 16.3243C12.165 16.3243 10.8599 15.9173 9.74989 15.1548C8.63986 14.3923 7.77469 13.3085 7.2638 12.0405C6.75291 10.7724 6.61924 9.37715 6.87969 8.03104C7.14014 6.68492 7.78301 5.44844 8.72702 4.47794C9.67103 3.50745 10.8738 2.84653 12.1831 2.57877C13.4925 2.31101 14.8497 2.44844 16.0831 2.97366C17.3165 3.49889 18.3707 4.38834 19.1124 5.52952C19.8541 6.6707 20.25 8.01236 20.25 9.38485C20.2504 10.2963 20.0761 11.1988 19.7371 12.041C19.398 12.8831 18.9008 13.6483 18.2739 14.2928C17.6471 14.9372 16.9028 15.4484 16.0836 15.7969C15.2645 16.1455 14.3865 16.3247 13.5 16.3243ZM13.5 4.75857C13.0983 4.76434 12.6993 4.82578 12.3136 4.94121C12.6315 5.38537 12.7841 5.93195 12.7436 6.48183C12.7031 7.03172 12.4723 7.54848 12.093 7.93842C11.7138 8.32835 11.2111 8.56563 10.6762 8.60723C10.1413 8.64883 9.60968 8.49199 9.17765 8.16515C8.93163 9.09696 8.97604 10.0846 9.30462 10.9891C9.63321 11.8936 10.2294 12.6694 11.0093 13.2073C11.7893 13.7452 12.7136 14.0181 13.6523 13.9876C14.591 13.9571 15.4968 13.6248 16.2421 13.0374C16.9875 12.4499 17.5349 11.637 17.8073 10.713C18.0797 9.78896 18.0634 8.80039 17.7606 7.88641C17.4579 6.97242 16.884 6.17905 16.1197 5.61796C15.3554 5.05686 14.4392 4.7563 13.5 4.75857Z" fill="#98FF98"/>
</svg>
