<svg width="27" height="22" viewBox="0 0 27 22" fill="none" xmlns="http://www.w3.org/2000/svg">
<path d="M13.142 5.5551L4.50036 12.8139V20.6482C4.50036 20.851 4.57937 21.0456 4.72001 21.189C4.86065 21.3324 5.0514 21.413 5.2503 21.413L10.5027 21.3992C10.701 21.3981 10.8907 21.3171 11.0306 21.1738C11.1704 21.0305 11.2489 20.8365 11.2489 20.6343V16.0592C11.2489 15.8563 11.3279 15.6618 11.4686 15.5183C11.6092 15.3749 11.7999 15.2943 11.9988 15.2943H14.9986C15.1975 15.2943 15.3883 15.3749 15.5289 15.5183C15.6695 15.6618 15.7486 15.8563 15.7486 16.0592V20.631C15.7482 20.7316 15.7674 20.8313 15.805 20.9244C15.8425 21.0175 15.8977 21.1021 15.9674 21.1733C16.037 21.2446 16.1198 21.3012 16.211 21.3398C16.3021 21.3783 16.3998 21.3982 16.4985 21.3982L21.749 21.413C21.9479 21.413 22.1387 21.3324 22.2793 21.189C22.42 21.0456 22.499 20.851 22.499 20.6482V12.8086L13.8592 5.5551C13.7576 5.4716 13.6311 5.42607 13.5006 5.42607C13.3701 5.42607 13.2436 5.4716 13.142 5.5551ZM26.7924 10.4888L22.8739 7.19472V0.573627C22.8739 0.421492 22.8147 0.275588 22.7092 0.168012C22.6037 0.0604356 22.4607 0 22.3115 0H19.6867C19.5375 0 19.3944 0.0604356 19.289 0.168012C19.1835 0.275588 19.1242 0.421492 19.1242 0.573627V4.04455L14.9278 0.523435C14.5251 0.185463 14.0198 0.000675611 13.4983 0.000675611C12.9767 0.000675611 12.4714 0.185463 12.0687 0.523435L0.204124 10.4888C0.14717 10.5368 0.100049 10.5958 0.065454 10.6624C0.0308591 10.7289 0.00946838 10.8018 0.00250394 10.8769C-0.00446049 10.9519 0.00313788 11.0276 0.0248649 11.0996C0.0465919 11.1716 0.0820218 11.2386 0.12913 11.2966L1.32435 12.7785C1.37133 12.8368 1.42912 12.885 1.4944 12.9205C1.55968 12.9559 1.63118 12.9779 1.7048 12.9851C1.77842 12.9924 1.85272 12.9847 1.92344 12.9626C1.99416 12.9405 2.05992 12.9045 2.11695 12.8564L13.142 3.59521C13.2436 3.51171 13.3701 3.46618 13.5006 3.46618C13.6311 3.46618 13.7576 3.51171 13.8592 3.59521L24.8847 12.8564C24.9416 12.9045 25.0073 12.9406 25.0779 12.9628C25.1485 12.9849 25.2228 12.9927 25.2963 12.9856C25.3699 12.9785 25.4414 12.9566 25.5066 12.9214C25.5719 12.8861 25.6298 12.838 25.6768 12.7799L26.8721 11.2981C26.9191 11.2397 26.9544 11.1724 26.9759 11.1C26.9974 11.0277 27.0046 10.9517 26.9972 10.8765C26.9898 10.8013 26.9679 10.7283 26.9327 10.6618C26.8976 10.5953 26.8499 10.5365 26.7924 10.4888Z" fill="white"/>
</svg>
