<svg width="59" height="52" viewBox="0 0 59 52" fill="none" xmlns="http://www.w3.org/2000/svg">
<path d="M2.10714 9.55102H56.8929C58.0567 9.55102 59 8.60083 59 7.42857V2.12245C59 0.950194 58.0567 0 56.8929 0H2.10714C0.943342 0 0 0.950194 0 2.12245V7.42857C0 8.60083 0.943342 9.55102 2.10714 9.55102ZM2.10714 30.7755H56.8929C58.0567 30.7755 59 29.8253 59 28.6531V23.3469C59 22.1747 58.0567 21.2245 56.8929 21.2245H2.10714C0.943342 21.2245 0 22.1747 0 23.3469V28.6531C0 29.8253 0.943342 30.7755 2.10714 30.7755ZM2.10714 52H56.8929C58.0567 52 59 51.0498 59 49.8775V44.5714C59 43.3992 58.0567 42.449 56.8929 42.449H2.10714C0.943342 42.449 0 43.3992 0 44.5714V49.8775C0 51.0498 0.943342 52 2.10714 52Z" fill="#592580"/>
</svg>
